<mxfile host="app.diagrams.net" agent="Mozilla/5.0 (Windows NT 10.0; Win64; x64) AppleWebKit/537.36 (KHTML, like Gecko) Chrome/140.0.0.0 Safari/537.36 Edg/140.0.0.0" version="28.2.3">
  <diagram id="UHtucTDHYm3F1TIR0g_-" name="ページ1">
    <mxGraphModel dx="1742" dy="1710" grid="1" gridSize="10" guides="1" tooltips="1" connect="1" arrows="1" fold="1" page="1" pageScale="1" pageWidth="827" pageHeight="1169" math="0" shadow="0">
      <root>
        <mxCell id="0" />
        <mxCell id="1" parent="0" />
        <mxCell id="2" value="本・会員証を渡す" style="text;html=1;align=center;verticalAlign=middle;whiteSpace=wrap;rounded=0;" parent="1" vertex="1">
          <mxGeometry x="-130" y="-30" width="170" height="30" as="geometry" />
        </mxCell>
        <mxCell id="_GXP6gdudcfFLJQqK_C7-2" value="事務員" style="shape=umlActor;verticalLabelPosition=bottom;verticalAlign=top;html=1;outlineConnect=0;" vertex="1" parent="1">
          <mxGeometry x="30" y="-20" width="30" height="60" as="geometry" />
        </mxCell>
        <mxCell id="_GXP6gdudcfFLJQqK_C7-3" value="カウンター" style="shape=umlBoundary;whiteSpace=wrap;html=1;fillColor=#d5e8d4;strokeColor=#82b366;" vertex="1" parent="1">
          <mxGeometry x="210" y="20" width="100" height="80" as="geometry" />
        </mxCell>
        <mxCell id="_GXP6gdudcfFLJQqK_C7-4" value="" style="endArrow=classic;html=1;rounded=0;entryX=0.01;entryY=0.596;entryDx=0;entryDy=0;entryPerimeter=0;exitX=1;exitY=0.3333333333333333;exitDx=0;exitDy=0;exitPerimeter=0;" edge="1" parent="1" source="_GXP6gdudcfFLJQqK_C7-2" target="_GXP6gdudcfFLJQqK_C7-3">
          <mxGeometry width="50" height="50" relative="1" as="geometry">
            <mxPoint x="250" y="260" as="sourcePoint" />
            <mxPoint x="300" y="210" as="targetPoint" />
          </mxGeometry>
        </mxCell>
        <mxCell id="_GXP6gdudcfFLJQqK_C7-5" value="貸出処理" style="ellipse;shape=umlControl;whiteSpace=wrap;html=1;fillColor=#f8cecc;strokeColor=#b85450;" vertex="1" parent="1">
          <mxGeometry x="450" y="70" width="70" height="80" as="geometry" />
        </mxCell>
        <mxCell id="_GXP6gdudcfFLJQqK_C7-6" value="" style="endArrow=classic;html=1;rounded=0;exitX=0.977;exitY=0.779;exitDx=0;exitDy=0;exitPerimeter=0;entryX=0.033;entryY=0.346;entryDx=0;entryDy=0;entryPerimeter=0;" edge="1" parent="1" source="_GXP6gdudcfFLJQqK_C7-3" target="_GXP6gdudcfFLJQqK_C7-5">
          <mxGeometry width="50" height="50" relative="1" as="geometry">
            <mxPoint x="250" y="260" as="sourcePoint" />
            <mxPoint x="300" y="210" as="targetPoint" />
          </mxGeometry>
        </mxCell>
        <mxCell id="_GXP6gdudcfFLJQqK_C7-7" value="図書" style="ellipse;shape=umlEntity;whiteSpace=wrap;html=1;fillColor=#dae8fc;strokeColor=#6c8ebf;" vertex="1" parent="1">
          <mxGeometry x="670" y="310" width="80" height="80" as="geometry" />
        </mxCell>
        <mxCell id="_GXP6gdudcfFLJQqK_C7-10" value="貸出可否確認" style="ellipse;shape=umlControl;whiteSpace=wrap;html=1;fillColor=#f8cecc;strokeColor=#b85450;" vertex="1" parent="1">
          <mxGeometry x="430" y="210" width="70" height="80" as="geometry" />
        </mxCell>
        <mxCell id="_GXP6gdudcfFLJQqK_C7-11" value="" style="endArrow=classic;html=1;rounded=0;exitX=0.086;exitY=0.838;exitDx=0;exitDy=0;exitPerimeter=0;entryX=0.414;entryY=0.104;entryDx=0;entryDy=0;entryPerimeter=0;" edge="1" target="_GXP6gdudcfFLJQqK_C7-10" parent="1" source="_GXP6gdudcfFLJQqK_C7-5">
          <mxGeometry width="50" height="50" relative="1" as="geometry">
            <mxPoint x="308" y="220.32" as="sourcePoint" />
            <mxPoint x="240" y="260.32" as="targetPoint" />
          </mxGeometry>
        </mxCell>
        <mxCell id="_GXP6gdudcfFLJQqK_C7-13" value="表示" style="ellipse;shape=umlControl;whiteSpace=wrap;html=1;fillColor=#f8cecc;strokeColor=#b85450;" vertex="1" parent="1">
          <mxGeometry x="280" y="220" width="70" height="80" as="geometry" />
        </mxCell>
        <mxCell id="_GXP6gdudcfFLJQqK_C7-14" value="" style="endArrow=classic;html=1;rounded=0;exitX=0.086;exitY=0.625;exitDx=0;exitDy=0;exitPerimeter=0;entryX=1.048;entryY=0.462;entryDx=0;entryDy=0;entryPerimeter=0;" edge="1" target="_GXP6gdudcfFLJQqK_C7-13" parent="1" source="_GXP6gdudcfFLJQqK_C7-10">
          <mxGeometry width="50" height="50" relative="1" as="geometry">
            <mxPoint x="305" y="390" as="sourcePoint" />
            <mxPoint x="160" y="443.32" as="targetPoint" />
          </mxGeometry>
        </mxCell>
        <mxCell id="_GXP6gdudcfFLJQqK_C7-15" value="貸出処理結果" style="shape=umlBoundary;whiteSpace=wrap;html=1;fillColor=#d5e8d4;strokeColor=#82b366;" vertex="1" parent="1">
          <mxGeometry x="100" y="230" width="100" height="80" as="geometry" />
        </mxCell>
        <mxCell id="_GXP6gdudcfFLJQqK_C7-16" value="" style="endArrow=classic;html=1;rounded=0;entryX=1.033;entryY=0.508;entryDx=0;entryDy=0;entryPerimeter=0;exitX=-0.01;exitY=0.65;exitDx=0;exitDy=0;exitPerimeter=0;" edge="1" parent="1" source="_GXP6gdudcfFLJQqK_C7-13" target="_GXP6gdudcfFLJQqK_C7-15">
          <mxGeometry width="50" height="50" relative="1" as="geometry">
            <mxPoint x="200" y="200" as="sourcePoint" />
            <mxPoint x="250" y="150" as="targetPoint" />
          </mxGeometry>
        </mxCell>
        <mxCell id="_GXP6gdudcfFLJQqK_C7-17" value="利用者" style="shape=umlActor;verticalLabelPosition=bottom;verticalAlign=top;html=1;outlineConnect=0;" vertex="1" parent="1">
          <mxGeometry x="-150" y="-20" width="30" height="60" as="geometry" />
        </mxCell>
        <mxCell id="_GXP6gdudcfFLJQqK_C7-19" value="" style="endArrow=classic;startArrow=classic;html=1;rounded=0;exitX=1;exitY=0.3333333333333333;exitDx=0;exitDy=0;exitPerimeter=0;entryX=0;entryY=0.3333333333333333;entryDx=0;entryDy=0;entryPerimeter=0;" edge="1" parent="1" source="_GXP6gdudcfFLJQqK_C7-17" target="_GXP6gdudcfFLJQqK_C7-2">
          <mxGeometry width="50" height="50" relative="1" as="geometry">
            <mxPoint x="-40" y="110" as="sourcePoint" />
            <mxPoint x="70" y="150" as="targetPoint" />
          </mxGeometry>
        </mxCell>
        <mxCell id="_GXP6gdudcfFLJQqK_C7-20" value="本を貸し出す&lt;div&gt;貸出不可を伝える&lt;/div&gt;" style="text;html=1;align=center;verticalAlign=middle;whiteSpace=wrap;rounded=0;" vertex="1" parent="1">
          <mxGeometry x="-130" y="10" width="170" height="30" as="geometry" />
        </mxCell>
        <mxCell id="_GXP6gdudcfFLJQqK_C7-22" value="" style="endArrow=classic;startArrow=classic;html=1;rounded=0;exitX=0.952;exitY=0.556;exitDx=0;exitDy=0;exitPerimeter=0;entryX=0;entryY=0.5;entryDx=0;entryDy=0;" edge="1" parent="1" source="_GXP6gdudcfFLJQqK_C7-23" target="_GXP6gdudcfFLJQqK_C7-7">
          <mxGeometry width="50" height="50" relative="1" as="geometry">
            <mxPoint x="670" y="300" as="sourcePoint" />
            <mxPoint x="740" y="280" as="targetPoint" />
          </mxGeometry>
        </mxCell>
        <mxCell id="_GXP6gdudcfFLJQqK_C7-23" value="貸出管理" style="ellipse;shape=umlControl;whiteSpace=wrap;html=1;fillColor=#f8cecc;strokeColor=#b85450;" vertex="1" parent="1">
          <mxGeometry x="470" y="310" width="70" height="80" as="geometry" />
        </mxCell>
        <mxCell id="_GXP6gdudcfFLJQqK_C7-24" value="" style="endArrow=classic;html=1;rounded=0;entryX=0.414;entryY=0.104;entryDx=0;entryDy=0;entryPerimeter=0;exitX=0.799;exitY=0.962;exitDx=0;exitDy=0;exitPerimeter=0;" edge="1" target="_GXP6gdudcfFLJQqK_C7-23" parent="1" source="_GXP6gdudcfFLJQqK_C7-10">
          <mxGeometry width="50" height="50" relative="1" as="geometry">
            <mxPoint x="500" y="300" as="sourcePoint" />
            <mxPoint x="320" y="401.8" as="targetPoint" />
          </mxGeometry>
        </mxCell>
        <mxCell id="_GXP6gdudcfFLJQqK_C7-25" value="返却する本を持参" style="text;html=1;align=center;verticalAlign=middle;whiteSpace=wrap;rounded=0;" vertex="1" parent="1">
          <mxGeometry x="-210" y="430" width="170" height="30" as="geometry" />
        </mxCell>
        <mxCell id="_GXP6gdudcfFLJQqK_C7-26" value="事務員" style="shape=umlActor;verticalLabelPosition=bottom;verticalAlign=top;html=1;outlineConnect=0;" vertex="1" parent="1">
          <mxGeometry x="-40" y="450" width="30" height="60" as="geometry" />
        </mxCell>
        <mxCell id="_GXP6gdudcfFLJQqK_C7-27" value="カウンター" style="shape=umlBoundary;whiteSpace=wrap;html=1;fillColor=#d5e8d4;strokeColor=#82b366;" vertex="1" parent="1">
          <mxGeometry x="80" y="440" width="100" height="80" as="geometry" />
        </mxCell>
        <mxCell id="_GXP6gdudcfFLJQqK_C7-28" value="" style="endArrow=classic;html=1;rounded=0;entryX=0.01;entryY=0.596;entryDx=0;entryDy=0;entryPerimeter=0;exitX=1;exitY=0.3333333333333333;exitDx=0;exitDy=0;exitPerimeter=0;" edge="1" source="_GXP6gdudcfFLJQqK_C7-26" target="_GXP6gdudcfFLJQqK_C7-27" parent="1">
          <mxGeometry width="50" height="50" relative="1" as="geometry">
            <mxPoint x="180" y="660" as="sourcePoint" />
            <mxPoint x="230" y="610" as="targetPoint" />
          </mxGeometry>
        </mxCell>
        <mxCell id="_GXP6gdudcfFLJQqK_C7-29" value="返却処理" style="ellipse;shape=umlControl;whiteSpace=wrap;html=1;fillColor=#f8cecc;strokeColor=#b85450;" vertex="1" parent="1">
          <mxGeometry x="510" y="570" width="70" height="80" as="geometry" />
        </mxCell>
        <mxCell id="_GXP6gdudcfFLJQqK_C7-30" value="" style="endArrow=classic;html=1;rounded=0;exitX=0.977;exitY=0.779;exitDx=0;exitDy=0;exitPerimeter=0;entryX=-0.048;entryY=0.571;entryDx=0;entryDy=0;entryPerimeter=0;" edge="1" source="_GXP6gdudcfFLJQqK_C7-27" target="_GXP6gdudcfFLJQqK_C7-46" parent="1">
          <mxGeometry width="50" height="50" relative="1" as="geometry">
            <mxPoint x="180" y="660" as="sourcePoint" />
            <mxPoint x="370" y="470" as="targetPoint" />
          </mxGeometry>
        </mxCell>
        <mxCell id="_GXP6gdudcfFLJQqK_C7-32" value="返却処理情報" style="ellipse;shape=umlControl;whiteSpace=wrap;html=1;fillColor=#f8cecc;strokeColor=#b85450;" vertex="1" parent="1">
          <mxGeometry x="410" y="670" width="70" height="80" as="geometry" />
        </mxCell>
        <mxCell id="_GXP6gdudcfFLJQqK_C7-33" value="" style="endArrow=classic;html=1;rounded=0;exitX=0.086;exitY=0.838;exitDx=0;exitDy=0;exitPerimeter=0;entryX=0.414;entryY=0.104;entryDx=0;entryDy=0;entryPerimeter=0;" edge="1" source="_GXP6gdudcfFLJQqK_C7-29" target="_GXP6gdudcfFLJQqK_C7-32" parent="1">
          <mxGeometry width="50" height="50" relative="1" as="geometry">
            <mxPoint x="238" y="620.3199999999999" as="sourcePoint" />
            <mxPoint x="170" y="660.3199999999999" as="targetPoint" />
          </mxGeometry>
        </mxCell>
        <mxCell id="_GXP6gdudcfFLJQqK_C7-34" value="表示" style="ellipse;shape=umlControl;whiteSpace=wrap;html=1;fillColor=#f8cecc;strokeColor=#b85450;" vertex="1" parent="1">
          <mxGeometry x="200" y="690" width="70" height="80" as="geometry" />
        </mxCell>
        <mxCell id="_GXP6gdudcfFLJQqK_C7-35" value="" style="endArrow=classic;html=1;rounded=0;exitX=0.086;exitY=0.625;exitDx=0;exitDy=0;exitPerimeter=0;entryX=1.048;entryY=0.462;entryDx=0;entryDy=0;entryPerimeter=0;" edge="1" source="_GXP6gdudcfFLJQqK_C7-32" target="_GXP6gdudcfFLJQqK_C7-34" parent="1">
          <mxGeometry width="50" height="50" relative="1" as="geometry">
            <mxPoint x="235" y="790" as="sourcePoint" />
            <mxPoint x="90" y="843.3199999999999" as="targetPoint" />
          </mxGeometry>
        </mxCell>
        <mxCell id="_GXP6gdudcfFLJQqK_C7-36" value="返却処理結果" style="shape=umlBoundary;whiteSpace=wrap;html=1;fillColor=#d5e8d4;strokeColor=#82b366;" vertex="1" parent="1">
          <mxGeometry x="40" y="700" width="100" height="80" as="geometry" />
        </mxCell>
        <mxCell id="_GXP6gdudcfFLJQqK_C7-37" value="" style="endArrow=classic;html=1;rounded=0;entryX=1.033;entryY=0.508;entryDx=0;entryDy=0;entryPerimeter=0;exitX=-0.01;exitY=0.65;exitDx=0;exitDy=0;exitPerimeter=0;" edge="1" source="_GXP6gdudcfFLJQqK_C7-34" target="_GXP6gdudcfFLJQqK_C7-36" parent="1">
          <mxGeometry width="50" height="50" relative="1" as="geometry">
            <mxPoint x="130" y="600" as="sourcePoint" />
            <mxPoint x="180" y="550" as="targetPoint" />
          </mxGeometry>
        </mxCell>
        <mxCell id="_GXP6gdudcfFLJQqK_C7-38" value="" style="endArrow=classic;startArrow=classic;html=1;rounded=0;exitX=1;exitY=0.3333333333333333;exitDx=0;exitDy=0;exitPerimeter=0;entryX=0;entryY=0.3333333333333333;entryDx=0;entryDy=0;entryPerimeter=0;" edge="1" target="_GXP6gdudcfFLJQqK_C7-26" parent="1" source="_GXP6gdudcfFLJQqK_C7-43">
          <mxGeometry width="50" height="50" relative="1" as="geometry">
            <mxPoint x="-190" y="400" as="sourcePoint" />
            <mxPoint y="550" as="targetPoint" />
          </mxGeometry>
        </mxCell>
        <mxCell id="_GXP6gdudcfFLJQqK_C7-39" value="返却完了通知" style="text;html=1;align=center;verticalAlign=middle;whiteSpace=wrap;rounded=0;" vertex="1" parent="1">
          <mxGeometry x="-210" y="485" width="170" height="30" as="geometry" />
        </mxCell>
        <mxCell id="_GXP6gdudcfFLJQqK_C7-42" value="" style="endArrow=classic;html=1;rounded=0;entryX=0.337;entryY=0.035;entryDx=0;entryDy=0;entryPerimeter=0;exitX=0.705;exitY=0.958;exitDx=0;exitDy=0;exitPerimeter=0;" edge="1" source="_GXP6gdudcfFLJQqK_C7-29" target="_GXP6gdudcfFLJQqK_C7-44" parent="1">
          <mxGeometry width="50" height="50" relative="1" as="geometry">
            <mxPoint x="430" y="700" as="sourcePoint" />
            <mxPoint x="498.98" y="678.3199999999997" as="targetPoint" />
          </mxGeometry>
        </mxCell>
        <mxCell id="_GXP6gdudcfFLJQqK_C7-43" value="利用者" style="shape=umlActor;verticalLabelPosition=bottom;verticalAlign=top;html=1;outlineConnect=0;" vertex="1" parent="1">
          <mxGeometry x="-250" y="450" width="30" height="60" as="geometry" />
        </mxCell>
        <mxCell id="_GXP6gdudcfFLJQqK_C7-44" value="図書" style="ellipse;shape=umlEntity;whiteSpace=wrap;html=1;fillColor=#dae8fc;strokeColor=#6c8ebf;" vertex="1" parent="1">
          <mxGeometry x="590" y="720" width="80" height="80" as="geometry" />
        </mxCell>
        <mxCell id="_GXP6gdudcfFLJQqK_C7-45" value="" style="endArrow=classic;html=1;rounded=0;exitX=0.994;exitY=0.724;exitDx=0;exitDy=0;exitPerimeter=0;entryX=0.078;entryY=0.365;entryDx=0;entryDy=0;entryPerimeter=0;" edge="1" parent="1" source="_GXP6gdudcfFLJQqK_C7-46" target="_GXP6gdudcfFLJQqK_C7-29">
          <mxGeometry width="50" height="50" relative="1" as="geometry">
            <mxPoint x="439.15" y="452" as="sourcePoint" />
            <mxPoint x="571.15" y="440" as="targetPoint" />
          </mxGeometry>
        </mxCell>
        <mxCell id="_GXP6gdudcfFLJQqK_C7-46" value="貸出管理" style="ellipse;shape=umlControl;whiteSpace=wrap;html=1;fillColor=#f8cecc;strokeColor=#b85450;" vertex="1" parent="1">
          <mxGeometry x="350" y="460" width="70" height="80" as="geometry" />
        </mxCell>
        <mxCell id="_GXP6gdudcfFLJQqK_C7-47" value="予約者確認" style="ellipse;shape=umlEntity;whiteSpace=wrap;html=1;fillColor=#dae8fc;strokeColor=#6c8ebf;" vertex="1" parent="1">
          <mxGeometry x="550" y="450.00000000000006" width="80" height="80" as="geometry" />
        </mxCell>
        <mxCell id="_GXP6gdudcfFLJQqK_C7-48" value="" style="endArrow=classic;html=1;rounded=0;entryX=0;entryY=0.5;entryDx=0;entryDy=0;exitX=0.966;exitY=0.293;exitDx=0;exitDy=0;exitPerimeter=0;" edge="1" target="_GXP6gdudcfFLJQqK_C7-47" parent="1" source="_GXP6gdudcfFLJQqK_C7-46">
          <mxGeometry width="50" height="50" relative="1" as="geometry">
            <mxPoint x="325.02000000000004" y="360.0000000000002" as="sourcePoint" />
            <mxPoint x="473.95" y="324.27999999999975" as="targetPoint" />
          </mxGeometry>
        </mxCell>
        <mxCell id="_GXP6gdudcfFLJQqK_C7-49" value="予約者通知" style="ellipse;shape=umlEntity;whiteSpace=wrap;html=1;fillColor=#dae8fc;strokeColor=#6c8ebf;" vertex="1" parent="1">
          <mxGeometry x="710" y="450.00000000000006" width="80" height="80" as="geometry" />
        </mxCell>
        <mxCell id="_GXP6gdudcfFLJQqK_C7-50" value="" style="endArrow=classic;html=1;rounded=0;entryX=0;entryY=0.5;entryDx=0;entryDy=0;exitX=1;exitY=0.5;exitDx=0;exitDy=0;" edge="1" target="_GXP6gdudcfFLJQqK_C7-49" parent="1" source="_GXP6gdudcfFLJQqK_C7-47">
          <mxGeometry width="50" height="50" relative="1" as="geometry">
            <mxPoint x="650.38" y="453" as="sourcePoint" />
            <mxPoint x="686.3299999999999" y="324.27999999999975" as="targetPoint" />
          </mxGeometry>
        </mxCell>
        <mxCell id="_GXP6gdudcfFLJQqK_C7-51" value="貸出上限に達していないか&lt;div&gt;規則違反を犯していないか&lt;/div&gt;&lt;div&gt;確認&lt;/div&gt;" style="text;html=1;align=center;verticalAlign=middle;whiteSpace=wrap;rounded=0;" vertex="1" parent="1">
          <mxGeometry x="310" y="170" width="160" height="30" as="geometry" />
        </mxCell>
        <mxCell id="_GXP6gdudcfFLJQqK_C7-52" value="会員証と本の情報を読み取る" style="text;html=1;align=center;verticalAlign=middle;whiteSpace=wrap;rounded=0;" vertex="1" parent="1">
          <mxGeometry x="80" y="-10" width="140" height="30" as="geometry" />
        </mxCell>
        <mxCell id="_GXP6gdudcfFLJQqK_C7-54" value="" style="endArrow=none;html=1;rounded=0;" edge="1" parent="1">
          <mxGeometry width="50" height="50" relative="1" as="geometry">
            <mxPoint x="-320" y="420" as="sourcePoint" />
            <mxPoint x="820" y="412.3529411764706" as="targetPoint" />
          </mxGeometry>
        </mxCell>
        <mxCell id="_GXP6gdudcfFLJQqK_C7-55" value="図書システムに記録" style="text;html=1;align=center;verticalAlign=middle;whiteSpace=wrap;rounded=0;" vertex="1" parent="1">
          <mxGeometry x="520" y="320" width="160" height="30" as="geometry" />
        </mxCell>
        <mxCell id="_GXP6gdudcfFLJQqK_C7-56" value="予約者がいた場合&lt;div&gt;通知する&lt;/div&gt;" style="text;html=1;align=center;verticalAlign=middle;whiteSpace=wrap;rounded=0;" vertex="1" parent="1">
          <mxGeometry x="600" y="450" width="120" height="30" as="geometry" />
        </mxCell>
        <mxCell id="_GXP6gdudcfFLJQqK_C7-57" value="図書システムに記録" style="text;html=1;align=center;verticalAlign=middle;whiteSpace=wrap;rounded=0;" vertex="1" parent="1">
          <mxGeometry x="590" y="660" width="120" height="30" as="geometry" />
        </mxCell>
        <mxCell id="_GXP6gdudcfFLJQqK_C7-58" value="返却期限を過ぎていないかなど確認" style="text;html=1;align=center;verticalAlign=middle;whiteSpace=wrap;rounded=0;" vertex="1" parent="1">
          <mxGeometry x="390" y="630" width="120" height="30" as="geometry" />
        </mxCell>
      </root>
    </mxGraphModel>
  </diagram>
</mxfile>
